# xmcd
#
# Track frame offsets:
#	150
#	12728
#	25431
#	38009
#	49750
#	61723
#	72236
#	85257
#	99823
#	112714
#	125257
#	137015
#	151136
#	163491
#	176017
#	188472
#	200189
#	211821
#	223183
#	235545
#	247597
#	262099
#	275034
#	289240
#	301298
#	314286
#	325693
#
# Disc length: 4495 seconds
#
# Revision: 0
# Processed by: cddbd v1.5.2PL0 Copyright (c) Steve Scherf et al.
# Submitted via: EasyCDDAExtractor 10.5.1.1
#
DISCID=7b118d1b
DTITLE=Jimmy Reed - 1 Anthology Jimmy Reed
DYEAR=1900
DGENRE=Blues
TTITLE0=Honest I Do
TTITLE1=Go On To School
TTITLE2=My First Plea
TTITLE3=Boogie In The Dark
TTITLE4=You Got Me Crying
TTITLE5=Ain't That Loving You Baby
TTITLE6=You Got Me Dizzy
TTITLE7=Little Rain
TTITLE8=Can't Stand To See You Go
TTITLE9=Roll And Rhumba
TTITLE10=You're Something Else
TTITLE11=You Don't Have To Go
TTITLE12=Pretty Thing
TTITLE13=I'm Gonna Ruin You
TTITLE14=I Don't Go For That
TTITLE15=She Don't Want Me No More
TTITLE16=Baby, Don't Say That No More
TTITLE17=Rockin' With Reed
TTITLE18=I Love You Baby
TTITLE19=Honey, Don't Let Me Go
TTITLE20=Honey, Where You Going
TTITLE21=The Sun Is Shining
TTITLE22=Baby, What's On Your Mind
TTITLE23=Signals Of Love
TTITLE24=A String To Your Heart
TTITLE25=I Know It's A Sin
TTITLE26=Down In Virginia
EXTD=
EXTT0=
EXTT1=
EXTT2=
EXTT3=
EXTT4=
EXTT5=
EXTT6=
EXTT7=
EXTT8=
EXTT9=
EXTT10=
EXTT11=
EXTT12=
EXTT13=
EXTT14=
EXTT15=
EXTT16=
EXTT17=
EXTT18=
EXTT19=
EXTT20=
EXTT21=
EXTT22=
EXTT23=
EXTT24=
EXTT25=
EXTT26=
PLAYORDER=
